inDegrees=no
num_controls=7
num_derivatives=13
num_iterations=100
num_multipliers=7
num_parameters=0
num_slacks=7
num_states=26
objective=0.497284
objective_accelerations=0.032954
objective_balance=0.003582
objective_effort=0.035420
objective_height=0.419815
objective_ligament=0.005512
solver_duration=1150.172054
status=Solve_Succeeded
success=true
DataType=double
version=3
OpenSimVersion=4.5
endheader
time	/jointset/ground_pelvis/pelvis_tilt/value	/jointset/ground_pelvis/pelvis_tx/value	/jointset/ground_pelvis/pelvis_ty/value	/jointset/hip_r/hip_flexion_r/value	/jointset/hip_r/hip_adduction_r/value	/jointset/hip_r/hip_rotation_r/value	/jointset/back/lumbar_extension/value	/jointset/patellofemoral_r/patellar_flexion_r/value	/jointset/knee_r/knee_flexion_r/value	/jointset/knee_r/knee_adduction_r/value	/jointset/knee_r/knee_rotation_r/value	/jointset/ankle_r/ankle_angle_r/value	/jointset/subtalar_r/subtalar_angle_r/value	/jointset/ground_pelvis/pelvis_tilt/speed	/jointset/ground_pelvis/pelvis_tx/speed	/jointset/ground_pelvis/pelvis_ty/speed	/jointset/hip_r/hip_flexion_r/speed	/jointset/hip_r/hip_adduction_r/speed	/jointset/hip_r/hip_rotation_r/speed	/jointset/back/lumbar_extension/speed	/jointset/patellofemoral_r/patellar_flexion_r/speed	/jointset/knee_r/knee_flexion_r/speed	/jointset/knee_r/knee_adduction_r/speed	/jointset/knee_r/knee_rotation_r/speed	/jointset/ankle_r/ankle_angle_r/speed	/jointset/subtalar_r/subtalar_angle_r/speed	/forceset/tau_hip_flexion_r	/forceset/tau_hip_adduction_r	/forceset/tau_hip_rotation_r	/forceset/tau_knee_flexion_r	/forceset/tau_ankle_angle_r	/forceset/tau_subtalar_angle_r	/forceset/tau_lumbar_extension	lambda_cid13_p0	lambda_cid14_p0	lambda_cid14_p1	lambda_cid14_p2	lambda_cid14_p3	lambda_cid14_p4	lambda_cid14_p5	/jointset/ground_pelvis/pelvis_tilt/accel	/jointset/ground_pelvis/pelvis_tx/accel	/jointset/ground_pelvis/pelvis_ty/accel	/jointset/hip_r/hip_flexion_r/accel	/jointset/hip_r/hip_adduction_r/accel	/jointset/hip_r/hip_rotation_r/accel	/jointset/back/lumbar_extension/accel	/jointset/patellofemoral_r/patellar_flexion_r/accel	/jointset/knee_r/knee_flexion_r/accel	/jointset/knee_r/knee_adduction_r/accel	/jointset/knee_r/knee_rotation_r/accel	/jointset/ankle_r/ankle_angle_r/accel	/jointset/subtalar_r/subtalar_angle_r/accel	gamma_cid13_p0	gamma_cid14_p0	gamma_cid14_p1	gamma_cid14_p2	gamma_cid14_p3	gamma_cid14_p4	gamma_cid14_p5
0.5	-0.1079013583135956	0.0434578021145817	0.8615053331512513	0.7147309878152872	-0.2298314703563094	-0.13312640113924	-0.3186160539168073	0.6873542591568655	0.687354259155968	0.04113697586509181	0.1745089947118492	0.2509552751433601	0.0533459515115443	-0.2843839886080809	-0.1112589210684969	-0.3348469687170281	1.46752848702686	-0.006996004432059338	0.2603222175385941	-0.6054734387452807	1.672995377920225	1.67299537792048	-0.279219800042216	8.877676041838655e-05	0.5782642415922786	0.1529884333098874	-0.08143722138944808	-0.01948605974729271	0.008295793963051509	-0.3403967785043573	0.07606610766678945	-0.0117411841463647	0.1394563041943425	-32.04986183049593	-17.88367594882101	-4.344116451770875	-3.286643740535263	2.472147321130548	-669.8480684482197	59.3803889738309	0.1153867591927488	0.3159660594719398	-0.3539293873965882	-0.914881500684224	-0.04736654476845735	-0.5365847927848483	1.345124128658465	-1.111082664546486	-1.111082664546513	0.3997533275307987	0.0001893836327428698	-0.4406060417445992	-0.06589245773947675	-1.065111266233513e-07	-1.623594543391237e-07	4.329861621687904e-07	-1.241147271799635e-06	5.379183340037579e-08	-2.192536342134522e-07	7.398455729619013e-07
0.51	-0.110738922932784	0.04236118429935475	0.8581399137043194	0.7293581523592891	-0.2299045762069677	-0.1305487607776161	-0.3246027339382187	0.7040261414433013	0.7040261414432267	0.038367272592639	0.1745097202879462	0.2567148317614187	0.05487116830894299	-0.2830857512575479	-0.1080492282727691	-0.3381609525476184	1.457694447574061	-0.007630552316614642	0.2552233562211721	-0.5917757540206537	1.661145821851802	1.661145821852025	-0.274675309023702	4.669606147522868e-05	0.5735703015160944	0.1520217711052927	-0.0869001053041903	-0.01772663154625718	0.008963115314034872	-0.3433966847604422	0.07243400918211129	-0.01124910500461451	0.1444749643719948	-31.09787133800104	-19.2022736454419	-4.484812360707526	-3.123112792902824	2.954051923917665	-673.1450000242658	59.13147692934574	0.1435063752835607	0.3257946183249557	-0.3087818925542489	-1.049179442130042	-0.07247515424338201	-0.4940920453448573	1.395112371788963	-1.257160079907195	-1.257160079911997	0.4886233247184825	-0.008073807087623822	-0.4953117784933374	-0.117108507603041	-8.883542041796087e-08	-1.141408100576444e-07	5.203830334348456e-07	-8.831690936632453e-07	1.439264714364304e-08	-1.667477084864333e-07	6.452980582629303e-07
0.52	-0.1135622123480072	0.0412971281578255	0.8547436246167488	0.7438806736538526	-0.2299842227852589	-0.128021620077992	-0.3304498327668992	0.7205724745686723	0.7205724745694169	0.03564437949751081	0.1745096916549633	0.2624251442211278	0.0563857074031391	-0.2815289478150185	-0.1047465863289555	-0.3410208968447759	1.446599837139174	-0.00830414995894492	0.2502222851387916	-0.577557200199064	1.647885545706696	1.647885545706887	-0.2698577645769191	-6.206505465805787e-05	0.5684154099223893	0.1508528926693553	-0.09236298921893338	-0.01596720334521802	0.009630436664958686	-0.3463965910165271	0.06880191069743415	-0.01075702586285879	0.1494936245496457	-30.13707455170936	-20.52519568138702	-4.623939865578542	-2.962488981611971	3.420831169909966	-676.516375128269	58.94598039068581	0.1670999775920542	0.3345558890891104	-0.2631214807100228	-1.166995697101451	-0.05517649632345829	-0.5170267457765408	1.449297948051034	-1.393226679883152	-1.393226679883161	0.454364013184566	-0.01314669980528183	-0.5327963452488088	-0.1063357040080016	-5.996068362287804e-08	-1.727112628618337e-08	7.650954299005546e-07	-1.797990515361717e-07	-7.445019425786541e-08	-5.683367849079677e-08	5.109497185871229e-07
0.53	-0.1163688325181658	0.04026647543747876	0.8513210294670962	0.7582863666113654	-0.2300702481251495	-0.1255461246591819	-0.3361522918740729	0.7369792834268062	0.7369792834272278	0.03296869754351581	0.1745093600327235	0.2680817410244025	0.05788833591694004	-0.2797591188037873	-0.1013757054408459	-0.3434181641003833	1.434340479544062	-0.008909011342605725	0.2449153755082304	-0.5628745479268101	1.63323958217209	1.633239582172225	-0.2652167217851436	-2.804269309480103e-05	0.5628199529215505	0.1496324611038589	-0.09749355602804245	-0.01435490233472334	0.01031404418245987	-0.3497607900383048	0.06552511320770954	-0.01040468990493304	0.1542217769470234	-29.17002887472222	-21.74857592213933	-4.815720266514649	-2.782743458562285	3.9018278585889	-679.9440628525957	58.73170474986667	0.1873211176013523	0.3395678105903292	-0.2160338203986508	-1.285143859673386	-0.06424971096436081	-0.5317756314204782	1.486759863113471	-1.535768793598652	-1.535768793607108	0.4783961666008021	0.008156275052445209	-0.5855439475283781	-0.1357864162892805	-3.368933237460144e-08	7.130139806917359e-08	1.002366640945088e-06	4.586851472562864e-07	-1.574362497826124e-07	4.04102324716847e-08	4.179846732175649e-07
0.54	-0.119156675047268	0.0392697742503969	0.847876860750405	0.7725635183791371	-0.2301625438291864	-0.1231225488486268	-0.3417061222592641	0.7532325351289234	0.7532325351290216	0.03034131036832938	0.174508664548282	0.2736798585436633	0.05937758220839232	-0.2777734196040507	-0.09795627967598212	-0.3453356102524974	1.420891599190662	-0.009558222789347981	0.2398383634886863	-0.547831455802524	1.617174114503509	1.617174114503587	-0.2601988088162995	-0.0001348374949185219	0.5567195531196324	0.1481764481996092	-0.1026241228371573	-0.01274260132423122	0.01099765169998198	-0.3531249890600863	0.06224831571798029	-0.01005235394702143	0.1589499293443976	-28.1974572838964	-22.9780913253985	-5.008479228472192	-2.602950608589984	4.382454953872711	-683.4669752501815	58.53626536845364	0.2102740152931336	0.344264864439941	-0.1671572600113691	-1.404900248758824	-0.06404650893975569	-0.4710472235731329	1.521385918457422	-1.677127506678229	-1.67712750667825	0.5297380485982852	-0.04131013248267239	-0.6337849054646622	-0.1534519717586422	-1.029832258236578e-08	1.506940864747983e-07	1.231405051098107e-06	1.025380753423211e-06	-2.339424571032827e-07	1.236361393974838e-07	3.708054002719428e-07
0.55	-0.1219236857402061	0.03830749435745993	0.8444159159117542	0.7867005614173707	-0.2302610500391353	-0.1207509063207182	-0.3471076256948287	0.7693183309066515	0.7693183309063738	0.02776351543696765	0.1745074269056489	0.2792147589377327	0.06085188615139932	-0.275591436765388	-0.09449179619453989	-0.3467716880593402	1.406325157847049	-0.01014454084398127	0.234497203405299	-0.5324120063351621	1.599766985133788	1.599766985133946	-0.2553357603572754	-0.000119037368962129	0.5501914349082265	0.1466568006921473	-0.1076772984654587	-0.01116486774096107	0.01159911247370315	-0.3564817486022973	0.05907934254538971	-0.009683718755877445	0.16360850793866	-27.22040700883342	-24.16967841679775	-5.186183182937947	-2.427084209346949	4.818276146062138	-686.956414172574	58.37072679813478	0.2277671933598036	0.3486703629178005	-0.1195488218577243	-1.511272789955792	-0.05582800785721308	-0.5645239082192958	1.560808207134012	-1.805214530397268	-1.805214530385313	0.4684975791356081	0.02234231644474831	-0.6727270995289544	-0.1549818479617736	4.451406078719234e-09	1.966447795523433e-07	1.354731959721311e-06	1.349726885508475e-06	-2.775726330595536e-07	1.713850028039896e-07	3.545162527348956e-07
0.5600000000000001	-0.1246677552497158	0.03738008535392176	0.8409430671388676	0.8006861886996095	-0.2303654001404536	-0.1184324500951464	-0.3523532178864683	0.7852235136150236	0.7852235136143753	0.02523513285711557	0.174506210710541	0.2846822977855779	0.06231024147778735	-0.273185182918448	-0.09098210179622257	-0.3477163970996676	1.39060844799171	-0.01072700106389771	0.2292011030219997	-0.5166492070174664	1.581051500632938	1.581051500633175	-0.2503163385150061	-0.0001305479906077676	0.5432472438748036	0.1449867248758126	-0.1127304740937681	-0.009587134157698563	0.01220057324749226	-0.3598385081445111	0.05591036937279417	-0.009315083564753029	0.1682670865329169	-26.24021129634613	-25.36923312419231	-5.367251191377314	-2.248430898964886	5.266228794496516	-690.5662018495954	58.18923316092722	0.2551282169486171	0.3533070478149618	-0.06888350670830208	-1.634953951103903	-0.06327494199638753	-0.4620352835555433	1.590055888524167	-1.938798532904133	-1.938798532904131	0.5610127252472955	-0.04677228200306858	-0.7169994698680658	-0.183537633533189	8.831597382423797e-09	2.024650782361937e-07	1.35120506650874e-06	1.383253648695755e-06	-2.817515713785465e-07	1.765614139873449e-07	3.752952556881372e-07
0.5700000000000001	-0.1273867314469256	0.03648794427423838	0.8374632370565928	0.8145090945742647	-0.2304754874301659	-0.1161670159287791	-0.3574395954805217	0.8009350921934496	0.8009350921934848	0.02275733214091056	0.1745048339047339	0.290078343043503	0.06375124243683486	-0.2705786534513969	-0.08744342655665076	-0.348166157904049	1.373794087352387	-0.01128672368801163	0.2238766473095536	-0.500585368018006	1.561052488778364	1.56105248877855	-0.2452392902600756	-0.0001435865449559763	0.5358937565947428	0.1431924126984306	-0.11753015035914	-0.00798654456944054	0.01268678612570899	-0.3632811363726926	0.05293016163260977	-0.008960964768302266	0.1726902274347138	-25.25845345946535	-26.50588908450761	-5.546368501823585	-2.066939909980714	5.706626401621323	-694.0924799304076	58.01099297446614	0.2681413885132563	0.3544940765367843	-0.02046725172252836	-1.731450729665533	-0.05143265264055821	-0.5689387849170654	1.620689471906795	-2.062213714670426	-2.06221371467801	0.4819675387568317	0.02190132295198743	-0.7547684406807295	-0.1801591105731873	1.083831657284155e-08	2.022217964135081e-07	1.337650677933937e-06	1.371557640508994e-06	-2.808963940579772e-07	1.752235735870444e-07	4.037452488042078e-07
0.58	-0.1300786971340809	0.03563125920985252	0.8339814203893904	0.8281585021206606	-0.2305909942921269	-0.1139550839334997	-0.3623641063713308	0.8164403284127423	0.8164403284134617	0.02033048523988079	0.1745034209064048	0.2953988044119062	0.06517374405396192	-0.267783080907151	-0.08389089873672088	-0.3481137140852156	1.355908782340306	-0.01181091551298851	0.2185006688039886	-0.4842758663685568	1.539783028806333	1.539783028806469	-0.2401255754795078	-0.0001377864951966774	0.5281304659704557	0.1412868564917493	-0.1223298266245159	-0.006385954981186976	0.01317299900392979	-0.3667237646008747	0.0499499538924246	-0.008606845971855164	0.1771133683365073	-24.27694683411356	-27.65132541655129	-5.728992493754022	-1.882638853719105	6.160954404305887	-697.7515387726588	57.81551395387604	0.2929368323875446	0.3560775638865851	0.03155741793466055	-1.849142825655451	-0.05616878216897827	-0.4723398421793627	1.639188418521923	-2.192888156395545	-2.19288815639535	0.5683460303747488	-0.04300456118155394	-0.7989601387133424	-0.2057864393930353	9.754002313397532e-09	1.940817585823108e-07	1.311037225631576e-06	1.300966860300228e-06	-2.734851591603036e-07	1.65402056705704e-07	4.42185368643962e-07
0.59	-0.1327417520748492	0.03481015392373434	0.830502639568956	0.8416237612559198	-0.2307116546454302	-0.1117969032407683	-0.3671243461758069	0.8317266802722835	0.8317266802720508	0.01795520092373036	0.1745020292826324	0.3006396557721249	0.06657652079841668	-0.2647939794465771	-0.08032886650063564	-0.3475584403334297	1.336968249583962	-0.01231850972633122	0.2131343537720216	-0.4677379023854002	1.517290915631718	1.51729091563179	-0.2349207306764742	-0.0001409269399853215	0.5199805671857486	0.1392471437536805	-0.1270184025643313	-0.004782099114370305	0.01355157784458829	-0.3700493735463553	0.04700500227112209	-0.008223875173536664	0.1814204162247059	-23.29769978720638	-28.77543605899742	-5.893581060559786	-1.70323764646934	6.593921051567519	-701.2681335098813	57.63454069680679	0.3070004562074686	0.3564060227962302	0.08014573363736159	-1.942707132231147	-0.04736336446068244	-0.5688849466985496	1.66622920937279	-2.306838842287878	-2.306838842297576	0.4983554874708528	0.02123731057129644	-0.8319255719359832	-0.2059142682859279	8.993576405229386e-09	1.852313617877062e-07	1.273022351136052e-06	1.227060877527423e-06	-2.642534109255006e-07	1.553595546119013e-07	4.713706621983667e-07
